<?xml version="1.0" encoding="UTF-8" standalone="no"?>
<svg
   xmlns:dc="http://purl.org/dc/elements/1.1/"
   xmlns:cc="http://creativecommons.org/ns#"
   xmlns:rdf="http://www.w3.org/1999/02/22-rdf-syntax-ns#"
   xmlns:svg="http://www.w3.org/2000/svg"
   xmlns="http://www.w3.org/2000/svg"
   id="svg933"
   version="1.1"
   viewBox="0 0 120.2 120.00002"
   height="120.00002mm"
   width="120.2mm">
  <defs
     id="defs927" />
  <metadata
     id="metadata930">
    <rdf:RDF>
      <cc:Work
         rdf:about="">
        <dc:format>image/svg+xml</dc:format>
        <dc:type
           rdf:resource="http://purl.org/dc/dcmitype/StillImage" />
        <dc:title></dc:title>
      </cc:Work>
    </rdf:RDF>
  </metadata>
  <g
     transform="translate(-35.195944,-114.89273)"
     id="layer1">
    <g
       id="flowRoot821-9"
       style="font-style:normal;font-variant:normal;font-weight:normal;font-stretch:normal;font-size:18.66666603px;line-height:125%;font-family:Avenir;-inkscape-font-specification:Avenir;letter-spacing:0px;word-spacing:0px;display:inline;opacity:1;fill:#e8cb84;fill-opacity:1;stroke:none;stroke-width:1px;stroke-linecap:butt;stroke-linejoin:miter;stroke-opacity:1"
       transform="matrix(1.5101127,0,0,1.387091,-147.22661,-531.99547)"
       aria-label="INFINITE TREE">
      <g
         style="fill:#e8cb84;fill-opacity:1"
         id="g1491">
        <path
           id="path1009"
           style="font-style:normal;font-variant:normal;font-weight:normal;font-stretch:normal;font-size:29.19828224px;line-height:62.00000048%;font-family:Avenir;-inkscape-font-specification:'Avenir, Normal';font-variant-ligatures:normal;font-variant-caps:normal;font-variant-numeric:normal;font-feature-settings:normal;text-align:center;letter-spacing:2.18987131px;writing-mode:lr-tb;text-anchor:middle;fill:#e8cb84;fill-opacity:1"
           d="m 161.08402,552.79983 0.67294,-0.0365 0.10373,-0.3742 c 0.26908,-0.97064 0.3597,-1.2285 0.74663,-2.12445 0.4571,-1.05845 0.52901,-1.24675 0.89923,-2.35446 0.13973,-0.41807 0.34029,-0.94589 0.44569,-1.17294 0.37541,-0.80869 0.50907,-1.37933 0.7307,-3.11952 0.20155,-1.58255 0.2085,-1.69677 0.2107,-3.46088 0.002,-1.4124 -0.0218,-2.05087 -0.10425,-2.82769 -0.0609,-0.57336 -0.10863,-1.4516 -0.11144,-2.04924 -0.006,-1.30304 -0.0465,-1.38283 -0.35972,-0.71008 -0.12263,0.26341 -0.51812,0.93044 -0.87888,1.4823 -0.98151,1.50142 -1.0771,1.73807 -1.71307,4.2408 -0.86408,3.4004 -1.10472,4.61583 -1.37178,6.92856 -0.10747,0.93064 -0.23307,1.88362 -0.27912,2.11774 -0.0461,0.23412 -0.10902,0.78141 -0.13992,1.21621 -0.0599,0.84311 -0.0682,0.89657 -0.22597,1.45945 -0.0563,0.20068 -0.11775,0.46532 -0.13666,0.58809 -0.0415,0.26937 0.0102,0.29599 0.50178,0.25878 0.18506,-0.014 0.63929,-0.0419 1.00941,-0.062 z m -3.70619,-0.29841 c 0.0194,-0.0836 0.0732,-0.15203 0.11963,-0.15203 0.12413,0 0.15573,-0.13201 0.41487,-1.7331 0.2992,-1.84854 0.62565,-3.67553 0.88264,-4.93964 0.2212,-1.08805 0.21892,-1.1275 -0.0885,-1.53134 -0.10143,-0.13323 -0.18887,-0.19461 -0.24437,-0.17153 -0.22064,0.0918 -1.85163,2.60334 -3.1092,4.78779 -0.82996,1.44168 -1.53895,3.10134 -1.42419,3.33387 0.0454,0.0919 0.21503,0.13812 0.91374,0.24876 0.91556,0.14499 2.03448,0.29045 2.324,0.30213 0.14375,0.006 0.18265,-0.0209 0.21136,-0.14491 z m -4.82728,-0.89696 c 0.0461,-0.14214 0.1637,-0.5162 0.26129,-0.83123 0.29753,-0.9605 1.33851,-3.07629 3.02717,-6.15269 1.04306,-1.90024 1.46089,-2.81395 2.7225,-5.95352 0.54432,-1.35455 1.07954,-2.68174 1.18938,-2.94931 0.36982,-0.90092 0.95685,-2.13272 1.75648,-3.68576 1.71142,-3.3239 2.72242,-5.74135 3.30628,-7.90586 0.62201,-2.30592 0.76092,-2.77003 1.39929,-4.6752 0.80457,-2.40116 1.08926,-3.34463 1.26731,-4.19995 0.25803,-1.2395 0.53786,-3.35602 0.74846,-5.66103 0.15892,-1.73936 0.0491,-2.84842 -0.28207,-2.84842 -0.2678,0 -0.50638,0.21494 -1.10188,0.99271 -0.33739,0.44066 -0.9735,1.22535 -1.41359,1.74376 -0.44009,0.51841 -0.9612,1.16564 -1.15803,1.43829 -0.70508,0.97666 -1.23634,2.12335 -1.48499,3.20526 -0.11902,0.51787 -0.11049,0.33485 -0.27238,5.84627 -0.0817,2.78104 -0.22191,3.51134 -1.15016,5.98984 -0.25678,0.68564 -0.85062,2.39593 -1.31963,3.80066 -1.57641,4.72147 -2.07288,5.92806 -3.20275,7.78375 -1.27775,2.09857 -2.41682,4.28987 -2.93975,5.65538 -0.11527,0.30101 -0.46851,1.3956 -0.78497,2.43242 -0.31646,1.03682 -0.88069,2.74132 -1.25386,3.78779 -0.37316,1.04646 -0.67847,1.95524 -0.67847,2.01951 0,0.12028 0.0361,0.13655 0.72902,0.32904 0.50399,0.14001 0.54048,0.13072 0.63535,-0.16171 z m 21.99229,-1.5276 c 0.93119,-0.37708 1.9624,-0.84612 2.00059,-0.90995 0.0208,-0.0348 -0.0108,-0.1665 -0.0701,-0.29269 -0.0594,-0.12618 -0.10794,-0.29832 -0.10794,-0.38252 0,-0.0842 -0.35578,-0.99516 -0.79061,-2.02437 -0.96714,-2.2891 -1.09874,-2.63086 -1.49035,-3.87042 -0.17039,-0.53932 -0.46864,-1.40473 -0.6628,-1.92314 -0.6467,-1.72675 -0.89021,-2.77674 -0.97641,-4.21028 -0.0851,-1.4157 0.016,-2.38245 0.52341,-5.00252 0.24445,-1.26228 0.37312,-2.25742 0.59362,-4.59119 0.0932,-0.98665 0.20895,-2.12229 0.25718,-2.52364 0.0687,-0.57148 0.08,-1.03303 0.0523,-2.12837 -0.058,-2.29052 -0.1596,-2.96484 -0.62554,-4.15109 -0.29359,-0.74747 -1.5144,-3.33783 -1.60017,-3.39531 -0.0314,-0.021 -0.0815,-0.0118 -0.11132,0.0206 -0.0818,0.0887 -0.72325,6.22477 -0.88847,8.49876 -0.034,0.46824 -0.14065,1.79543 -0.23696,2.94931 -0.24329,2.9148 -0.25174,4.90821 -0.0289,6.81078 0.2308,1.97029 0.52624,5.77838 0.62984,8.11821 0.0619,1.39787 0.28808,2.84666 0.78325,5.01687 0.32967,1.44477 0.62621,2.2336 1.21162,3.22295 0.17707,0.29927 0.32852,0.48385 0.44046,0.53686 0.0938,0.0444 0.22311,0.16073 0.28727,0.25845 0.0642,0.0977 0.15911,0.17753 0.21099,0.17736 0.0519,0 0.32143,-0.0923 0.59902,-0.20467 z m -28.30249,-0.50955 c 0.0323,-0.092 0.0863,-0.26475 0.11986,-0.38395 0.0365,-0.12944 0.22447,-0.40096 0.46677,-0.67424 0.9287,-1.04741 1.01574,-1.1717 1.4235,-2.03266 0.22054,-0.46565 0.59035,-1.29815 0.82182,-1.85001 0.64666,-1.54175 2.34716,-5.33366 2.61948,-5.84111 0.13364,-0.24903 0.45939,-0.79483 0.72388,-1.2129 0.59745,-0.94432 2.01878,-4.02343 2.49828,-5.41215 0.179,-0.51841 0.42121,-1.12043 0.53825,-1.33783 0.11703,-0.2174 0.35473,-0.79206 0.52821,-1.27702 0.17348,-0.48496 0.40288,-1.09186 0.50977,-1.34867 l 0.19434,-0.46691 0.0582,-2.17155 c 0.0409,-1.52748 0.0406,-2.19065 -10e-4,-2.23598 -0.0418,-0.0454 -0.11617,-0.0293 -0.25125,0.0545 -0.19056,0.11809 -1.5505,1.38783 -2.89273,2.70085 -0.88539,0.71102 -1.30736,1.37206 -1.91502,2.03952 -0.36215,0.37329 -2.09894,2.58443 -2.35951,3.00392 -0.2461,0.53129 -0.19468,0.32583 -0.49179,0.82605 -0.0559,0.0549 -0.16088,0.26894 -0.23325,0.47572 -0.19183,0.54802 -0.18232,1.4467 0.0262,2.47837 0.31589,1.56277 0.2962,2.63071 -0.0752,4.08048 -0.53956,2.10599 -0.79859,3.35157 -1.00356,4.82561 -0.1156,0.83132 -0.18171,1.05589 -0.83198,2.8259 -0.21503,0.5853 -0.4357,1.21469 -0.49038,1.39864 -0.12961,0.43598 -0.33902,0.88757 -0.53987,1.16415 -0.0885,0.12188 -0.16091,0.25099 -0.16091,0.28691 0,0.0991 0.28616,0.24646 0.48388,0.24921 0.14077,0.002 0.18707,-0.0306 0.23421,-0.1648 z m -1.64995,-0.63851 c 0.013,-0.0753 0.0538,-0.35574 0.0906,-0.62331 0.0369,-0.26757 0.17843,-0.89696 0.31462,-1.39864 0.52243,-1.9244 0.87097,-3.58768 1.14051,-5.44255 0.13488,-0.92819 0.28338,-2.43473 0.28338,-2.87496 0,-0.34823 -0.18682,-1.0499 -0.31932,-1.19934 -0.0715,-0.0807 -0.095,-0.0722 -0.20323,0.0737 -0.0673,0.0907 -0.38527,0.93899 -0.70661,1.88513 -0.32134,0.94613 -0.80374,2.32227 -1.07199,3.05808 -0.26825,0.73581 -0.7717,2.17245 -1.11878,3.19255 -0.34707,1.0201 -0.6659,1.92862 -0.7085,2.01893 -0.0426,0.0903 -0.0774,0.1949 -0.0774,0.2324 0,0.0772 2.10637,1.20946 2.25609,1.21274 0.0571,10e-4 0.10678,-0.0542 0.12068,-0.13469 z m 33.92123,-0.72175 c 0.87789,-0.47655 2.28395,-1.3391 2.28395,-1.40108 0,-0.0342 -0.0852,-0.1702 -0.1894,-0.30217 -0.10417,-0.13197 -0.24667,-0.42365 -0.31667,-0.64818 -0.12322,-0.39527 -0.12768,-0.48835 -0.14037,-2.93186 -0.007,-1.388 -0.0537,-3.35826 -0.10335,-4.37836 -0.15349,-3.15462 -0.26514,-5.17935 -0.3121,-5.65979 -0.0547,-0.55943 -1.07148,-3.98494 -1.76766,-5.95502 -0.2541,-0.71909 -0.51612,-1.50253 -0.58226,-1.74098 -0.0661,-0.23846 -0.1709,-0.49843 -0.23281,-0.5777 -0.11181,-0.14319 -0.11315,-0.14333 -0.20118,-0.0225 -0.24826,0.34067 -0.40007,0.86028 -0.92036,3.15013 -0.56751,2.4977 -0.70634,3.16931 -1.30352,6.30591 -0.32592,1.71191 -0.34173,1.8356 -0.3458,2.70607 -0.005,1.14806 0.0588,1.53512 0.49861,3.01012 0.19449,0.65219 0.49151,1.65101 0.66003,2.21958 0.36282,1.22407 0.6654,1.96597 1.50848,3.69865 0.60188,1.23696 0.72644,1.58488 0.80939,2.26079 0.0503,0.40954 0.0788,0.51689 0.13736,0.51689 0.0309,0 0.26389,-0.11272 0.51766,-0.25047 z m 5.22717,-3.43094 c 1.16493,-0.90347 1.93561,-1.56417 1.93561,-1.65938 0,-0.0447 -0.0757,-0.26841 -0.16824,-0.49702 -0.0925,-0.22862 -0.16823,-0.46883 -0.16823,-0.53382 0,-0.14023 -0.99815,-2.67356 -1.43426,-3.64018 -0.4532,-1.00451 -1.65804,-2.88003 -1.85015,-2.88003 -0.17238,0 -0.17319,2.71913 -0.001,4.25674 0.0468,0.41807 0.11242,1.23902 0.14594,1.82432 0.0752,1.31325 0.2478,2.65811 0.35815,2.79069 0.0727,0.0874 0.12076,0.25855 0.22786,0.81233 0.0178,0.092 0.0539,0.16723 0.0803,0.16723 0.0264,0 0.41981,-0.28839 0.87431,-0.64088 z m -46.94667,-0.81036 c 0.0177,-0.0958 0.16593,-0.3642 0.32946,-0.5964 0.56586,-0.80349 1.59056,-2.23684 2.40262,-3.36079 1.03148,-1.42765 1.42333,-2.02866 2.38126,-3.65234 0.42424,-0.71908 1.21904,-2.04627 1.76621,-2.94931 1.31679,-2.17317 1.81783,-3.12692 3.6657,-6.97778 0.36416,-0.7589 0.45945,-1.1354 0.31232,-1.23401 -0.0902,-0.0605 -0.21097,0.0808 -1.22019,1.42792 -1.11782,1.4921 -1.45063,1.88401 -2.11282,2.48807 -2.50203,2.28233 -4.34765,4.3169 -7.34294,8.09469 -2.16538,2.73108 -2.43296,3.01443 -2.60694,3.43491 -0.43614,0.3847 -0.21105,0.16313 -0.62028,0.57001 -0.10586,0.17482 -0.10588,0.13866 -0.10586,0.17482 5e-5,0.14686 2.88997,2.74829 3.05624,2.75274 0.0347,9.5e-4 0.0776,-0.0767 0.0952,-0.17253 z m -3.80531,-3.66983 c 0.18109,-0.57269 1.13656,-2.18743 2.28348,-3.85904 0.96349,-1.40427 2.06451,-3.16693 2.06451,-3.30515 0,-0.0605 -0.0308,-0.12109 -0.0684,-0.13469 -0.15904,-0.0575 -0.68274,0.10941 -1.41764,0.45179 -1.89368,0.88225 -2.88141,1.25642 -4.65451,1.76322 -1.72957,0.49435 -1.78327,0.50549 -2.08094,0.43163 -0.13692,-0.034 -0.25973,-0.0429 -0.27291,-0.0197 -0.10306,0.18082 3.78056,4.96273 3.9925,4.91599 0.0454,-0.01 0.11467,-0.11983 0.15395,-0.24403 z m 57.01424,-1.52025 0.33576,-0.40824 -0.2563,-0.58292 c -0.14097,-0.3206 -0.25631,-0.63382 -0.25631,-0.69605 0,-0.0622 -0.20688,-0.42345 -0.45974,-0.80274 -1.01923,-1.52889 -0.97976,-1.44288 -2.18163,-4.7539 -1.47777,-4.07112 -1.67432,-4.51751 -2.94983,-6.6992 -0.37152,-0.63547 -1.04825,-1.82583 -1.50385,-2.64525 -1.22588,-2.20484 -1.54253,-2.70237 -2.57372,-4.0439 -0.73269,-0.66188 -1.02393,-1.29985 -1.58738,-2.10567 -0.36328,-0.48921 -0.74884,-1.04598 -0.85679,-1.23727 -1.11766,-1.98056 -2.08585,-3.14457 -2.98561,-3.58946 -0.31744,-0.15695 -1.38036,-0.44889 -1.49005,-0.40925 -0.11519,0.0416 -0.0755,0.17467 0.23817,0.79742 0.41738,0.82878 0.49475,0.95704 1.43493,2.37871 1.55331,2.34881 1.43955,2.12846 3.23374,6.26348 0.6603,1.52178 1.70017,3.82042 2.31082,5.10809 0.61064,1.28766 1.30759,2.84405 1.54876,3.45866 0.62997,1.60541 1.6793,3.36065 3.53087,5.90616 1.81785,2.49913 2.91065,3.95182 2.99454,3.98069 0.0562,0.0193 0.12851,0.098 0.16079,0.17481 0.0323,0.0768 0.15221,0.29821 0.26651,0.49197 l 0.20782,0.3523 0.25137,-0.2651 c 0.13825,-0.14581 0.40246,-0.44881 0.58713,-0.67334 z m 3.97747,-5.52767 c 0.40858,-0.83524 0.42083,-0.70407 0.89218,-1.55683 0.73293,-1.32755 0.77169,-1.41597 0.65713,-1.49911 -0.61748,-0.44813 -0.99539,-0.75737 -1.05756,-0.86542 -0.0416,-0.0723 -0.27756,-0.30411 -0.5243,-0.51506 -0.24675,-0.21094 -0.80193,-0.71222 -1.23373,-1.11395 -2.59367,-2.413 -3.00255,-2.89595 -4.82694,-5.70126 -1.83153,-2.8163 -2.29427,-3.35132 -3.43329,-3.96966 -0.22509,-0.12219 -0.78183,-0.49481 -1.23719,-0.82804 -0.45537,-0.33323 -0.85793,-0.60587 -0.89457,-0.60587 -0.19237,0 -0.0646,0.21357 2.05603,3.43579 2.0319,3.08746 2.41417,3.7481 3.41062,5.89438 0.48028,1.03448 0.97468,2.06066 1.09868,2.2804 0.49584,0.87865 1.98444,3.06983 2.36317,3.47851 0.45523,0.49122 1.24361,1.08598 1.4417,1.08763 0.0737,5.7e-4 0.34559,0.15112 0.60427,0.33446 0.25869,0.18334 0.49039,0.33334 0.51491,0.33334 0.0245,0 0.10052,-0.0852 0.16889,-0.18931 z m -54.8131,-4.23856 c 0.65076,-0.31295 1.56601,-0.91207 3.49746,-2.28941 0.93803,-0.66894 1.27294,-0.94332 1.50591,-1.23376 0.16478,-0.20544 0.47993,-0.50877 0.70035,-0.67408 0.41754,-0.31314 0.86987,-0.79679 2.08519,-2.22956 0.39718,-0.46824 1.0012,-1.16604 1.34226,-1.55066 0.34105,-0.38463 1.32854,-1.65709 2.1944,-2.82769 2.18039,-2.94777 2.76452,-3.61391 4.73282,-5.3973 1.3905,-1.25987 2.59069,-2.05525 4.28978,-2.84292 0.36999,-0.17152 0.81161,-0.39673 0.98137,-0.50046 1.34484,-0.82178 2.58239,-2.10215 3.58424,-3.70826 0.23585,-0.37811 0.30467,-0.54751 0.35426,-0.87205 0.051,-0.33345 0.0479,-0.41252 -0.0177,-0.45938 -0.0436,-0.0311 -0.30635,-0.0465 -0.58394,-0.0342 -0.42791,0.019 -0.64977,0.0739 -1.45804,0.36085 -0.52433,0.18617 -1.25615,0.3966 -1.62627,0.46761 -2.23824,0.42945 -3.38853,1.10306 -4.6669,2.73294 -0.33077,0.42173 -0.98082,1.23197 -1.44456,1.80055 -0.46373,0.56858 -1.03221,1.27986 -1.26329,1.58061 -0.23109,0.30076 -0.61942,0.79332 -0.86296,1.09459 -0.90405,1.11833 -2.27508,3.03706 -4.31198,6.03454 -0.20937,0.30811 -0.5416,0.70824 -0.73828,0.88918 -0.3689,0.33936 -2.90662,2.18292 -4.6204,3.35654 -1.18767,0.81333 -1.38711,0.99785 -1.79815,1.66355 -0.9054,1.46637 -2.6623,4.7221 -2.61711,4.8498 0.0422,0.11915 0.0737,0.11018 0.74151,-0.21098 z m -15.14392,-3.11942 c 0.14364,-0.17267 0.94426,-0.60346 1.56487,-0.84202 0.27758,-0.1067 0.86836,-0.28944 1.31284,-0.40608 0.92729,-0.24334 0.8826,-0.22124 2.44441,-1.20869 1.38337,-0.87463 1.91914,-1.17013 3.39274,-1.87121 1.42676,-0.6788 2.25463,-1.04388 2.63569,-1.16231 0.16964,-0.0527 0.83837,-0.15062 1.48608,-0.21755 0.6477,-0.0669 1.65712,-0.17769 2.24314,-0.24614 0.58602,-0.0684 1.55757,-0.13889 2.15902,-0.15655 1.28282,-0.0377 1.51311,-0.0818 2.0749,-0.39749 0.833,-0.4681 2.68278,-2.25374 3.65843,-3.53159 0.87806,-1.15 0.92019,-1.2209 2.70263,-4.54799 0.91514,-1.70818 1.13634,-2.18944 1.00624,-2.18921 -0.0946,1.8e-4 -1.68345,0.95525 -2.51184,1.5099 -1.17937,0.78965 -1.66193,1.18123 -2.06514,1.67579 -0.81071,0.9944 -2.18581,2.59134 -2.57823,2.99418 -0.79415,0.81523 -1.48873,1.22931 -2.84778,1.69775 -0.904,0.31158 -3.13546,1.08786 -4.85078,1.68748 -1.72329,0.6024 -3.74655,1.41266 -4.4302,1.77416 -0.33927,0.1794 -1.09633,0.66777 -1.68235,1.08526 -1.03004,0.73383 -4.3995,2.77854 -5.12251,3.10852 -0.19441,0.0887 -0.54086,0.19367 -0.76989,0.23318 -0.25783,0.0445 -0.41642,0.10051 -0.41642,0.1471 0,0.0414 0.053,0.21994 0.11787,0.39677 0.0648,0.17682 0.13991,0.38307 0.16685,0.45833 0.0614,0.17143 0.17132,0.17442 0.30943,0.008 z m 75.15652,-5.29893 c 0.2785,-1.14855 0.57226,-2.55822 0.5869,-2.81636 l 0.0132,-0.23279 -0.75566,-0.2263 c -0.4156,-0.12446 -0.8203,-0.26771 -0.89932,-0.31832 -0.079,-0.0506 -0.57174,-0.21921 -1.09494,-0.37464 -3.25817,-0.96794 -5.04417,-1.56963 -6.0161,-2.02677 -0.46471,-0.21857 -1.50706,-0.9184 -2.53379,-1.70117 -0.83137,-0.63383 -1.51715,-1.30227 -2.66701,-2.59958 -1.1815,-1.33299 -1.75341,-1.88812 -2.61121,-2.53456 -0.68851,-0.51887 -1.13077,-0.75399 -2.48962,-1.32357 -0.61949,-0.25967 -1.27646,-0.55394 -1.45993,-0.65394 -0.43434,-0.23671 -1.0813,-0.48713 -1.53895,-0.59568 -0.50877,-0.12067 -2.84015,-0.23871 -3.04414,-0.15412 l -0.15576,0.0646 0.10843,0.23048 c 0.31808,0.6761 0.89408,1.3196 1.71721,1.91846 0.55822,0.40612 1.16535,1.00909 1.47268,1.46257 0.12099,0.17853 0.69077,0.72211 1.43873,1.37256 2.51493,2.1871 2.61531,2.25694 5.11325,3.55774 1.92051,1.00011 2.29992,1.22336 4.45279,2.62005 1.89223,1.2276 2.18115,1.40429 3.92549,2.40073 0.66313,0.37881 1.5716,0.91372 2.01883,1.1887 0.44722,0.27497 0.97536,0.5739 1.17363,0.66429 0.53873,0.24558 1.33979,0.51891 1.42134,0.48497 0.0395,-0.0164 0.37389,0.0504 0.74319,0.14859 0.36929,0.0982 0.7229,0.18082 0.78578,0.18373 0.0999,0.005 0.1372,-0.089 0.29498,-0.73965 z m -74.76605,-0.2452 c 2.07274,-0.95026 2.72612,-1.27541 5.49243,-2.73328 1.11036,-0.58516 2.44783,-1.26296 2.97216,-1.50621 1.14196,-0.52979 1.48608,-0.71261 1.48608,-0.78951 0,-0.31858 -2.07557,-0.31557 -3.86941,0.006 -0.81223,0.14543 -1.53136,0.34436 -3.58902,0.99282 -1.22672,0.38659 -1.63778,0.54612 -2.3553,0.91406 -0.86686,0.44451 -1.40497,0.65097 -2.28978,0.87849 -0.50611,0.13016 -0.62629,0.20225 -0.62629,0.37569 0,0.1402 0.35678,1.7656 0.51067,2.32649 0.1135,0.41365 0.11558,0.41641 0.2925,0.38831 0.098,-0.0156 0.98719,-0.39918 1.97596,-0.85249 z m -2.22747,-4.57946 c 0.37514,-0.38761 0.68206,-0.74239 0.68206,-0.7884 0,-0.12705 -0.17397,-0.20353 -0.83027,-0.36497 -0.67418,-0.16584 -0.93938,-0.18498 -0.97982,-0.0707 -0.0275,0.0777 0.15351,1.60783 0.21506,1.81814 0.0633,0.21643 0.23946,0.10184 0.91297,-0.59408 z m 1.68444,-5.64987 c 2.55006,-0.10728 2.84801,-0.13226 2.88682,-0.24193 0.0666,-0.1881 -0.25568,-0.36368 -1.78626,-0.9733 -0.6477,-0.25798 -1.7426,-0.70036 -2.4331,-0.98307 -0.97501,-0.3992 -1.30698,-0.50994 -1.48608,-0.49574 l -0.23062,0.0183 -0.0151,1.33349 c -0.0117,1.02622 0.001,1.34479 0.0561,1.38251 0.10055,0.0692 0.54949,0.0632 3.0083,-0.0402 z m 69.99803,-0.96724 c 0.80441,-0.17707 2.0677,-0.556 2.73807,-0.8213 0.82912,-0.32813 1.80079,-0.9712 1.88883,-1.25007 0.0208,-0.0658 0.16757,-0.27103 0.32622,-0.45608 0.35674,-0.41612 0.94858,-1.15365 1.23195,-1.5352 l 0.21284,-0.28659 -0.0911,-0.7776 c -0.18324,-1.56458 -0.77127,-4.85377 -0.89095,-4.98355 -0.0292,-0.0317 -1.01144,0.16659 -1.5516,0.31314 -0.16964,0.046 -0.39676,0.0834 -0.50471,0.083 -0.36656,-10e-4 -1.89088,0.65851 -2.70057,1.16897 -0.22648,0.14278 -0.7467,0.5021 -1.15603,0.79848 -1.63809,1.18605 -2.59698,1.57156 -4.50829,1.81254 -1.03208,0.13012 -3.04663,0.48865 -3.60785,0.6421 -0.62414,0.17064 -0.98137,0.3373 -0.98137,0.45783 0,0.11422 1.18834,1.32146 2.0749,2.10791 0.56355,0.49991 1.6253,1.26924 2.4149,1.74981 0.95746,0.58273 1.93242,0.97615 2.7771,1.12064 0.52539,0.0899 1.5544,0.0262 2.32763,-0.14401 z m -40.38663,-3.65691 c 0.19771,-0.0505 0.67718,-0.24437 1.06549,-0.43075 0.38831,-0.18638 1.23831,-0.55396 1.88888,-0.81684 0.65058,-0.26288 1.52667,-0.64312 1.94687,-0.84498 0.93265,-0.44802 1.95377,-0.83157 3.17889,-1.19403 0.87327,-0.25836 1.38815,-0.444 1.95723,-0.70564 l 0.24664,-0.1134 -0.13124,-0.1515 c -0.21034,-0.24278 -0.61607,-0.4958 -0.9789,-0.61046 -0.65431,-0.20677 -1.87693,-0.098 -4.19556,0.3732 -2.29869,0.46716 -2.98685,0.64217 -4.04796,1.02945 -1.17706,0.42959 -1.74999,0.57164 -3.08432,0.76471 -1.3319,0.19272 -1.45069,0.18299 -3.30038,-0.2705 -1.07544,-0.26366 -2.10033,-0.46942 -3.05627,-0.61358 -3.27363,-0.49367 -3.78364,-0.62828 -7.94335,-2.0966 -2.46922,-0.8716 -2.68028,-0.96672 -4.45823,-2.00919 -0.71525,-0.41937 -1.88221,-1.00312 -3.70118,-1.85143 -1.85363,-0.86447 -2.62239,-1.17531 -3.46225,-1.39992 -0.93295,-0.2495 -1.00171,-0.26186 -1.02553,-0.1844 -0.0285,0.0926 1.24483,1.00539 2.58631,1.8541 0.66027,0.41774 1.7052,1.12819 2.32206,1.57878 2.1015,1.53506 2.57952,1.87001 3.93279,2.75567 2.67136,1.7483 4.78234,3.02181 5.5684,3.3593 0.91759,0.39397 2.27853,0.72341 4.4343,1.07342 0.66354,0.10773 1.10202,0.1343 2.38333,0.14442 1.19303,0.009 2.07534,0.0581 3.67314,0.20279 1.15662,0.10471 2.16603,0.19993 2.24314,0.21161 0.41774,0.0633 1.62936,0.0297 1.9577,-0.0542 z m -19.75457,-1.0929 c 0.0472,-0.13342 -0.0399,-0.22172 -0.56051,-0.56789 -0.25629,-0.17044 -0.92717,-0.68022 -1.49084,-1.13284 -1.83721,-1.47526 -2.22678,-1.71381 -3.7301,-2.28407 -0.97588,-0.37018 -1.35966,-0.44082 -3.13305,-0.57667 -1.1704,-0.0896 -1.29145,-0.0898 -1.41599,-10e-4 -0.17833,0.12671 -0.17205,0.2404 0.0215,0.38987 0.38468,0.29703 3.66393,2.03524 4.58093,2.42818 2.21194,0.94784 3.29711,1.33012 4.69303,1.65325 0.87971,0.20364 0.9918,0.21354 1.035,0.0914 z m -8.31165,-0.85492 c 0.20282,-0.21992 0.18055,-0.23161 -1.81854,-0.95423 -1.68433,-0.60885 -2.15965,-0.72571 -2.2097,-0.54325 -0.0526,0.19158 -0.20131,1.19649 -0.20149,1.36115 -1.8e-4,0.21442 -0.0417,0.21034 2.25297,0.22216 1.65011,0.008 1.89977,-0.002 1.97676,-0.0858 z m 61.12949,-2.45473 c 3.56766,-0.20335 5.47373,-1.16829 7.39484,-3.7436 0.2495,-0.33445 0.76377,-1.00202 1.14282,-1.48347 0.37905,-0.48145 0.7364,-0.9877 0.7941,-1.125 0.0577,-0.13729 0.379,-0.6024 0.71402,-1.03358 0.33502,-0.43118 0.64129,-0.8308 0.68061,-0.88805 0.0601,-0.0875 0.0413,-0.18058 -0.11809,-0.58428 -0.26395,-0.66859 -0.47941,-1.1187 -0.53549,-1.1187 -0.0261,0 -0.3945,0.3147 -0.81866,0.69933 -0.42416,0.38462 -0.80411,0.69932 -0.84434,0.69932 -0.0402,0 -0.34645,0.27568 -0.68049,0.61263 -1.17992,1.19017 -2.05037,1.79013 -2.85803,1.96991 -1.10083,0.24503 -2.82416,0.3141 -3.27097,0.13108 -0.13765,-0.0564 -0.42786,-0.11483 -0.6449,-0.1299 -0.21705,-0.0151 -0.78578,-0.0585 -1.26385,-0.0965 -1.19478,-0.0951 -1.80895,-0.0187 -3.01232,0.37489 -1.69967,0.55584 -2.6406,1.00573 -3.90005,1.86477 -1.48263,1.01125 -3.63059,2.81444 -3.84157,3.22496 l -0.12708,0.24726 0.14869,0.12683 c 0.22107,0.18857 0.47164,0.24591 1.3392,0.30648 0.98047,0.0685 8.26288,0.0277 9.70156,-0.0543 z m 9.72868,-3.01667 c 0.2925,-0.0534 0.56155,-0.12384 0.59788,-0.15654 0.0363,-0.0327 0.39899,-0.1684 0.80589,-0.30155 0.88558,-0.28979 1.12069,-0.39151 1.12069,-0.48486 0,-0.11655 -0.68131,-2.33345 -0.73683,-2.39758 -0.0329,-0.038 -0.0967,-0.001 -0.1761,0.10137 -0.68961,0.89126 -1.35733,1.69129 -1.41156,1.69129 -0.0611,0 -1.09893,1.33011 -1.14365,1.46576 -0.0388,0.11756 0.11955,0.24273 0.26658,0.21077 0.0799,-0.0174 0.3846,-0.0753 0.6771,-0.12866 z m -33.18414,-1.24682 c 0.1153,-0.0347 0.23517,-0.11486 0.26637,-0.17809 0.14336,-0.29046 0.005,-0.93698 -0.31079,-1.45483 -0.18177,-0.29786 -0.53351,-0.5648 -1.73419,-1.31613 -0.52366,-0.32769 -1.59616,-1.03359 -2.38333,-1.56867 -0.78717,-0.53508 -1.85791,-1.23049 -2.37943,-1.54536 -1.13823,-0.68721 -1.93034,-1.25546 -2.59554,-1.862 -0.55596,-0.50693 -1.318,-1.33992 -1.74433,-1.90673 -0.51908,-0.69013 -1.2801,-1.99058 -1.75268,-2.99506 -0.2564,-0.54498 -0.65512,-1.28127 -0.88606,-1.63621 -0.90291,-1.38775 -1.03382,-1.60669 -1.26782,-2.12053 -0.13313,-0.29235 -0.43705,-1.05148 -0.67536,-1.68695 -0.51014,-1.36029 -1.34194,-3.24157 -1.77456,-4.0135 -0.16869,-0.30101 -0.5148,-1.01249 -0.76912,-1.58107 -0.25432,-0.56858 -0.53284,-1.11587 -0.61892,-1.21621 -0.0861,-0.10034 -0.26462,-0.40135 -0.39675,-0.66892 -0.33921,-0.68693 -0.29902,-0.65786 -0.65086,-0.47075 -0.16715,0.0889 -0.30391,0.18055 -0.30391,0.20367 0,0.0231 0.0909,0.29718 0.20193,0.609 0.11105,0.31183 0.20806,0.65093 0.21557,0.75355 0.007,0.10263 0.29899,1.04745 0.64773,2.09961 0.34873,1.05215 0.84295,2.54286 1.09825,3.31268 1.02579,3.09305 1.32266,3.6758 3.94927,7.75231 0.56617,0.87871 0.77512,1.25974 0.95442,1.74047 0.31779,0.85204 0.57815,1.30848 1.03617,1.81651 0.77975,0.86491 3.6005,3.17234 4.59024,3.75492 0.86293,0.50794 2.85933,1.83861 4.12995,2.75276 1.51128,1.08729 1.88863,1.29255 2.62242,1.42654 0.14609,0.0267 0.27824,0.0516 0.29366,0.0553 0.0154,0.004 0.12237,-0.0216 0.23767,-0.0563 z m 9.71955,-0.15356 c 0.9345,-0.60972 1.44153,-1.1988 2.89189,-3.35991 1.45281,-2.16477 2.02712,-2.96122 3.07704,-4.26727 1.42842,-1.77688 1.98023,-2.51589 2.55453,-3.42117 0.30216,-0.47628 0.72939,-1.12594 0.94942,-1.44368 0.22001,-0.31773 0.66309,-1.00185 0.9846,-1.52026 0.41678,-0.67202 0.74277,-1.11549 1.13576,-1.54505 0.30314,-0.33137 0.60066,-0.70767 0.66113,-0.83621 0.0605,-0.12854 0.2295,-0.43228 0.3756,-0.67498 0.35273,-0.5859 0.41702,-0.98508 0.39409,-2.4465 l -0.0172,-1.09398 -0.77666,-0.65432 c -0.42717,-0.35988 -0.81136,-0.65433 -0.85376,-0.65433 -0.0424,0 -0.11556,0.0807 -0.16259,0.17929 -0.13423,0.28148 -0.41881,0.47573 -1.01774,0.6947 -1.22417,0.44756 -1.25487,0.46548 -1.78687,1.04269 -0.86948,0.94337 -1.77403,2.36358 -3.31079,5.19815 -1.17854,2.17384 -1.63218,2.94884 -2.66376,4.5508 -1.40158,2.17653 -1.56896,2.63621 -2.29549,6.30388 -0.45832,2.31376 -0.69628,4.00085 -0.58181,4.12498 0.0598,0.0649 0.0915,0.0522 0.44258,-0.17683 z m -38.9835,-0.23288 c -0.0301,-0.085 -3.19262,-3.39893 -3.77939,-3.96028 -0.72533,-0.69392 -3.71574,-2.94754 -3.91119,-2.94754 -0.0554,0 -0.19347,-0.0684 -0.30695,-0.15203 -0.11347,-0.0836 -0.24528,-0.15202 -0.2929,-0.15202 -0.0869,0 -0.64838,1.12607 -0.64838,1.30031 0,0.0475 0.0846,0.14044 0.18798,0.20659 0.11542,0.0738 0.23877,0.23402 0.31952,0.4149 0.0723,0.16203 0.23383,0.40478 0.35887,0.53944 0.40841,0.4398 1.27846,1.21095 1.73895,1.54129 0.48561,0.34835 3.67863,2.09112 5.18958,2.83249 0.92185,0.45233 1.20344,0.5451 1.14391,0.37685 z m 17.51217,-0.60927 c 0.4263,-0.15103 1.11577,-0.34484 1.53215,-0.43069 0.85614,-0.17653 1.23372,-0.30672 1.23372,-0.42541 0,-0.10925 -0.24667,-0.35388 -0.97264,-0.96459 -0.66259,-0.5574 -0.93569,-0.73781 -2.70049,-1.78401 -2.95704,-1.75297 -4.29893,-2.3781 -6.95373,-3.23942 -2.94891,-0.95676 -4.3446,-1.48621 -6.24527,-2.36914 -0.85229,-0.39592 -2.20575,-0.98683 -3.00767,-1.31314 -0.80192,-0.3263 -2.04481,-0.86491 -2.76198,-1.19689 -0.85269,-0.39473 -1.34192,-0.59055 -1.41368,-0.56585 -0.14317,0.0493 -0.4693,0.4968 -0.42223,0.57939 0.02,0.0352 0.38637,0.25401 0.81409,0.48636 0.42771,0.23234 1.52975,0.85728 2.44897,1.38874 0.91922,0.53147 1.95598,1.121 2.3039,1.31008 0.34794,0.18908 1.15003,0.64445 1.78243,1.01193 0.63241,0.36749 1.73568,1.00013 2.45172,1.40586 0.71603,0.40574 1.61732,0.94333 2.00286,1.19466 1.00904,0.65776 3.07448,2.16171 4.1498,3.02167 1.52244,1.21751 2.17761,1.65976 2.83196,1.91157 1.03744,0.39925 1.75418,0.39407 2.92609,-0.0211 z m 16.9593,-0.83691 c 0.0884,-0.17905 0.0298,-1.57432 -0.0913,-2.1733 -0.21504,-1.06404 -0.59727,-2.06041 -1.34494,-3.50588 -1.20229,-2.32435 -1.58273,-3.1954 -2.01648,-4.6169 -0.16329,-0.53513 -0.37468,-1.18332 -0.46977,-1.44042 -0.21023,-0.56845 -0.40017,-1.57827 -0.62526,-3.32411 -0.30176,-2.34048 -0.33529,-2.95004 -0.39531,-7.18474 -0.031,-2.1907 -0.0796,-4.10623 -0.10798,-4.25673 -0.0283,-0.15051 -0.074,-0.67341 -0.0881,-1.16256 l -0.0366,-0.88891 -0.33923,-0.0385 c -0.18659,-0.0211 -0.83983,0.15976 -1.38543,-0.0385 h -1.04619 l -0.13186,0.89695 c -0.0725,0.49333 -0.16541,0.97905 -0.20642,1.07939 -0.11179,0.27353 -0.29766,2.03045 -0.36027,3.40539 -0.0305,0.66892 -0.093,1.88665 -0.13887,2.70607 -0.10445,1.86391 -0.10371,2.28857 0.005,3.08521 0.16076,1.174 0.43965,2.16552 1.41566,5.03299 0.30737,0.90304 0.74042,2.26931 0.96234,3.03615 0.45697,1.57906 0.71716,2.31853 1.12871,3.20786 0.61882,1.3372 0.97291,1.86298 2.57723,3.82689 1.04455,1.27867 1.63828,1.92832 2.14989,2.35238 0.21191,0.17566 0.4584,0.17619 0.54478,10e-4 z m 20.85559,-2.75281 c 1.47374,-0.24271 2.743,-0.90132 3.90045,-2.02394 0.19565,-0.18976 0.41237,-0.46444 0.48159,-0.61038 0.0797,-0.16805 0.38888,-0.52583 0.84313,-0.97567 0.39449,-0.39068 0.71768,-0.72781 0.71821,-0.74918 0.001,-0.0588 -0.8603,-1.59036 -1.13547,-2.01812 -0.13283,-0.20649 -0.26722,-0.37544 -0.29865,-0.37544 -0.0314,0 -0.36695,0.37627 -0.74561,0.83615 -0.37866,0.45988 -0.71979,0.83614 -0.75807,0.83614 -0.0383,0 -0.21854,0.18471 -0.40059,0.41047 -1.06671,1.32278 -1.83195,2.19413 -2.23105,2.54039 -0.48708,0.4226 -1.1114,0.80004 -1.60767,0.97192 -0.41771,0.14467 -1.644,0.75316 -1.69374,0.84044 -0.0711,0.12476 0.0614,0.19085 0.58826,0.29345 0.6527,0.12711 1.6502,0.13724 2.33921,0.0238 z m -21.02352,-6.65245 c 0.20673,-0.24577 0.25639,-0.69972 0.38688,-3.53607 0.24337,-5.2902 0.24346,-5.30754 0.0335,-6.74997 -0.099,-0.68015 -0.17462,-1.82831 -0.2583,-3.92228 -0.0334,-0.83615 -0.10099,-1.78023 -0.15017,-2.09797 -0.0654,-0.42239 -0.0811,-0.79331 -0.0585,-1.37976 l 0.031,-0.80206 -0.14938,-0.0339 c -0.58177,-0.13217 -3.08457,-0.52071 -3.35424,-0.52071 -0.0782,0 -0.0828,0.0912 -0.0399,0.80574 0.0266,0.44316 0.0409,1.01515 0.0318,1.27109 -0.009,0.25595 0.0853,1.95256 0.20973,3.77026 0.12441,1.81769 0.25382,3.71537 0.28757,4.21705 0.11481,1.70664 0.74421,5.4006 1.12907,6.62649 0.24383,0.7767 1.03087,2.29189 1.29828,2.49945 0.16575,0.12864 0.4235,0.0656 0.60263,-0.14732 z m -34.05658,-2.96924 c 0.49887,-0.85842 -0.6697,-2.62193 -0.82945,-2.90804 -0.056,-0.10034 -0.15586,-0.38083 -0.22186,-0.62331 -0.066,-0.24248 -0.13824,-0.44087 -0.16052,-0.44087 -0.0223,0 -0.49497,0.50131 -0.73748,0.75757 -0.23558,0.24894 -0.69694,0.75758 -0.69694,0.75758 l 0.10859,0.13937 c 0.0597,0.0767 0.20339,0.25507 0.31925,0.39647 0.11587,0.1414 0.21067,0.29224 0.21067,0.33521 0,0.0878 1.29681,1.38322 1.64558,1.64384 0.26782,0.20013 0.2971,0.0541 0.36216,-0.0578 z m 42.10641,-5.60893 c 0.93127,-0.20841 1.58892,-0.6692 2.02507,-1.41891 0.2731,-0.46943 0.62719,-1.41621 0.6854,-1.83267 0.0239,-0.17106 0.13601,-0.69343 0.2491,-1.16083 0.11309,-0.4674 0.19813,-0.9326 0.18899,-1.03378 -0.0157,-0.17366 -0.0747,-0.21548 -1.05408,-0.7469 -1.3858,-0.75196 -3.02824,-1.5094 -3.02824,-1.39653 0,0.12607 -0.40796,2.07707 -0.46695,2.23311 -0.14588,0.38589 -0.34079,2.04186 -0.34355,2.91891 -0.002,0.72925 0.0144,0.87867 0.14923,1.33783 0.0835,0.28429 0.16898,0.62326 0.18992,0.75326 0.0576,0.35777 0.18744,0.4631 0.56949,0.46215 0.17735,-3.8e-4 0.55338,-0.0525 0.83562,-0.11564 z m -27.92546,-2.03151 c -0.12313,-0.97419 -0.90091,-4.03316 -1.10827,-4.35877 -0.0532,-0.0836 -0.1873,-0.50574 -0.27736,-0.76014 -0.078,-0.22045 -0.20183,-0.63322 -0.22784,-0.66392 -0.0286,-0.0337 -0.13128,-0.0278 -0.2594,0.015 -0.38722,0.12929 -0.38519,0.11931 -0.15214,0.74755 0.11636,0.31366 0.23015,0.69469 0.25287,0.84674 0.0553,0.36978 1.17665,3.43614 1.46065,3.99403 0.2592,0.50919 0.36054,0.56759 0.31149,0.17952 z m 5.64404,-3.8077 c 0.10973,-0.1317 0.22552,-0.34378 0.25733,-0.47128 0.10166,-0.40757 0.33467,-1.86609 0.33334,-2.08654 -7e-4,-0.11706 0.0656,-0.53397 0.14736,-0.92646 0.0818,-0.39249 0.13104,-0.74452 0.10951,-0.78229 -0.0265,-0.0464 -0.1481,-0.0553 -0.37527,-0.0274 -0.54338,0.0667 -1.73898,0.32923 -1.79988,0.39527 -0.0374,0.0406 0.0125,0.30144 0.14998,0.78337 0.11334,0.39739 0.20608,0.79989 0.20608,0.89443 0,0.21781 0.66021,2.4604 0.72434,2.4604 0.0262,0 0.13748,-0.10776 0.24721,-0.23946 z" />
      </g>
    </g>
  </g>
</svg>
