<svg xmlns:dc="http://purl.org/dc/elements/1.1/" xmlns:cc="http://creativecommons.org/ns#" xmlns:rdf="http://www.w3.org/1999/02/22-rdf-syntax-ns#" xmlns:svg="http://www.w3.org/2000/svg" xmlns="http://www.w3.org/2000/svg" id="svg933" viewBox="0 0 120.2 120.00002" height="120.00002mm" width="120.2mm"><defs id="defs927" /><g transform="translate(-35.195944,-114.89273)" id="layer1"><g id="flowRoot821-9" style="font-style:normal;font-variant:normal;font-weight:400;font-stretch:normal;font-size:18.66666603px;line-height:125%;font-family:Avenir;-inkscape-font-specification:Avenir;letter-spacing:0;word-spacing:0;display:inline;opacity:1;fill:#e8cb84;fill-opacity:1;stroke:none;stroke-width:1px;stroke-linecap:butt;stroke-linejoin:miter;stroke-opacity:1" transform="matrix(1.5101127,0,0,1.387091,-147.22661,-531.99547)" aria-label="INFINITE TREE"><g style="fill:#e8cb84;fill-opacity:1" id="g1491"><path id="path1009" style="font-style:normal;font-variant:normal;font-weight:400;font-stretch:normal;font-size:29.19828224px;line-height:62.00000048%;font-family:Avenir;-inkscape-font-specification:'Avenir, Normal';font-variant-ligatures:normal;font-variant-caps:normal;font-variant-numeric:normal;font-feature-settings:normal;text-align:center;letter-spacing:2.18987131px;writing-mode:lr-tb;text-anchor:middle;fill:#e8cb84;fill-opacity:1" d="m161.08402 552.79983.67294-.0365.10373-.3742c.26908-.97064.3597-1.2285.74663-2.12445.4571-1.05845.52901-1.24675.89923-2.35446.13973-.41807.34029-.94589.44569-1.17294.37541-.80869.50907-1.37933.7307-3.11952.20155-1.58255.2085-1.69677.2107-3.46088.002-1.4124-.0218-2.05087-.10425-2.82769-.0609-.57336-.10863-1.4516-.11144-2.04924-.006-1.30304-.0465-1.38283-.35972-.71008-.12263.26341-.51812.93044-.87888 1.4823-.98151 1.50142-1.0771 1.73807-1.71307 4.2408-.86408 3.4004-1.10472 4.61583-1.37178 6.92856-.10747.93064-.23307 1.88362-.27912 2.11774-.0461.23412-.10902.78141-.13992 1.21621-.0599.84311-.0682.89657-.22597 1.45945-.0563.20068-.11775.46532-.13666.58809-.0415.26937.0102.29599.50178.25878.18506-.014.63929-.0419 1.00941-.062zm-3.70619-.29841c.0194-.0836.0732-.15203.11963-.15203.12413.0.15573-.13201.41487-1.7331.2992-1.84854.62565-3.67553.88264-4.93964.2212-1.08805.21892-1.1275-.0885-1.53134-.10143-.13323-.18887-.19461-.24437-.17153-.22064.0918-1.85163 2.60334-3.1092 4.78779-.82996 1.44168-1.53895 3.10134-1.42419 3.33387.0454.0919.21503.13812.91374.24876.91556.14499 2.03448.29045 2.324.30213.14375.006.18265-.0209.21136-.14491zm-4.82728-.89696c.0461-.14214.1637-.5162.26129-.83123.29753-.9605 1.33851-3.07629 3.02717-6.15269 1.04306-1.90024 1.46089-2.81395 2.7225-5.95352.54432-1.35455 1.07954-2.68174 1.18938-2.94931.36982-.90092.95685-2.13272 1.75648-3.68576 1.71142-3.3239 2.72242-5.74135 3.30628-7.90586.62201-2.30592.76092-2.77003 1.39929-4.6752.80457-2.40116 1.08926-3.34463 1.26731-4.19995.25803-1.2395.53786-3.35602.74846-5.66103.15892-1.73936.0491-2.84842-.28207-2.84842-.2678.0-.50638.21494-1.10188.99271-.33739.44066-.9735 1.22535-1.41359 1.74376-.44009.51841-.9612 1.16564-1.15803 1.43829-.70508.97666-1.23634 2.12335-1.48499 3.20526-.11902.51787-.11049.33485-.27238 5.84627-.0817 2.78104-.22191 3.51134-1.15016 5.98984-.25678.68564-.85062 2.39593-1.31963 3.80066-1.57641 4.72147-2.07288 5.92806-3.20275 7.78375-1.27775 2.09857-2.41682 4.28987-2.93975 5.65538-.11527.30101-.46851 1.3956-.78497 2.43242-.31646 1.03682-.88069 2.74132-1.25386 3.78779-.37316 1.04646-.67847 1.95524-.67847 2.01951.0.12028.0361.13655.72902.32904.50399.14001.54048.13072.63535-.16171zm21.99229-1.5276c.93119-.37708 1.9624-.84612 2.00059-.90995.0208-.0348-.0108-.1665-.0701-.29269-.0594-.12618-.10794-.29832-.10794-.38252.0-.0842-.35578-.99516-.79061-2.02437-.96714-2.2891-1.09874-2.63086-1.49035-3.87042-.17039-.53932-.46864-1.40473-.6628-1.92314-.6467-1.72675-.89021-2.77674-.97641-4.21028-.0851-1.4157.016-2.38245.52341-5.00252.24445-1.26228.37312-2.25742.59362-4.59119.0932-.98665.20895-2.12229.25718-2.52364.0687-.57148.08-1.03303.0523-2.12837-.058-2.29052-.1596-2.96484-.62554-4.15109-.29359-.74747-1.5144-3.33783-1.60017-3.39531-.0314-.021-.0815-.0118-.11132.0206-.0818.0887-.72325 6.22477-.88847 8.49876-.034.46824-.14065 1.79543-.23696 2.94931-.24329 2.9148-.25174 4.90821-.0289 6.81078.2308 1.97029.52624 5.77838.62984 8.11821.0619 1.39787.28808 2.84666.78325 5.01687.32967 1.44477.62621 2.2336 1.21162 3.22295.17707.29927.32852.48385.44046.53686.0938.0444.22311.16073.28727.25845.0642.0977.15911.17753.21099.17736.0519.0.32143-.0923.59902-.20467zm-28.30249-.50955c.0323-.092.0863-.26475.11986-.38395.0365-.12944.22447-.40096.46677-.67424.9287-1.04741 1.01574-1.1717 1.4235-2.03266.22054-.46565.59035-1.29815.82182-1.85001.64666-1.54175 2.34716-5.33366 2.61948-5.84111.13364-.24903.45939-.79483.72388-1.2129.59745-.94432 2.01878-4.02343 2.49828-5.41215.179-.51841.42121-1.12043.53825-1.33783.11703-.2174.35473-.79206.52821-1.27702.17348-.48496.40288-1.09186.50977-1.34867l.19434-.46691.0582-2.17155c.0409-1.52748.0406-2.19065-.001-2.23598-.0418-.0454-.11617-.0293-.25125.0545-.19056.11809-1.5505 1.38783-2.89273 2.70085-.88539.71102-1.30736 1.37206-1.91502 2.03952-.36215.37329-2.09894 2.58443-2.35951 3.00392-.2461.53129-.19468.32583-.49179.82605-.0559.0549-.16088.26894-.23325.47572-.19183.54802-.18232 1.4467.0262 2.47837.31589 1.56277.2962 2.63071-.0752 4.08048-.53956 2.10599-.79859 3.35157-1.00356 4.82561-.1156.83132-.18171 1.05589-.83198 2.8259-.21503.5853-.4357 1.21469-.49038 1.39864-.12961.43598-.33902.88757-.53987 1.16415-.0885.12188-.16091.25099-.16091.28691.0.0991.28616.24646.48388.24921.14077.002.18707-.0306.23421-.1648zm-1.64995-.63851c.013-.0753.0538-.35574.0906-.62331.0369-.26757.17843-.89696.31462-1.39864.52243-1.9244.87097-3.58768 1.14051-5.44255.13488-.92819.28338-2.43473.28338-2.87496.0-.34823-.18682-1.0499-.31932-1.19934-.0715-.0807-.095-.0722-.20323.0737-.0673.0907-.38527.93899-.70661 1.88513-.32134.94613-.80374 2.32227-1.07199 3.05808-.26825.73581-.7717 2.17245-1.11878 3.19255-.34707 1.0201-.6659 1.92862-.7085 2.01893-.0426.0903-.0774.1949-.0774.2324.0.0772 2.10637 1.20946 2.25609 1.21274.0571.001.10678-.0542.12068-.13469zm33.92123-.72175c.87789-.47655 2.28395-1.3391 2.28395-1.40108.0-.0342-.0852-.1702-.1894-.30217-.10417-.13197-.24667-.42365-.31667-.64818-.12322-.39527-.12768-.48835-.14037-2.93186-.007-1.388-.0537-3.35826-.10335-4.37836-.15349-3.15462-.26514-5.17935-.3121-5.65979-.0547-.55943-1.07148-3.98494-1.76766-5.95502-.2541-.71909-.51612-1.50253-.58226-1.74098-.0661-.23846-.1709-.49843-.23281-.5777-.11181-.14319-.11315-.14333-.20118-.0225-.24826.34067-.40007.86028-.92036 3.15013-.56751 2.4977-.70634 3.16931-1.30352 6.30591-.32592 1.71191-.34173 1.8356-.3458 2.70607-.005 1.14806.0588 1.53512.49861 3.01012.19449.65219.49151 1.65101.66003 2.21958.36282 1.22407.6654 1.96597 1.50848 3.69865.60188 1.23696.72644 1.58488.80939 2.26079.0503.40954.0788.51689.13736.51689.0309.0.26389-.11272.51766-.25047zm5.22717-3.43094c1.16493-.90347 1.93561-1.56417 1.93561-1.65938.0-.0447-.0757-.26841-.16824-.49702-.0925-.22862-.16823-.46883-.16823-.53382.0-.14023-.99815-2.67356-1.43426-3.64018-.4532-1.00451-1.65804-2.88003-1.85015-2.88003-.17238.0-.17319 2.71913-.001 4.25674.0468.41807.11242 1.23902.14594 1.82432.0752 1.31325.2478 2.65811.35815 2.79069.0727.0874.12076.25855.22786.81233.0178.092.0539.16723.0803.16723.0264.0.41981-.28839.87431-.64088zm-46.94667-.81036c.0177-.0958.16593-.3642.32946-.5964.56586-.80349 1.59056-2.23684 2.40262-3.36079 1.03148-1.42765 1.42333-2.02866 2.38126-3.65234.42424-.71908 1.21904-2.04627 1.76621-2.94931 1.31679-2.17317 1.81783-3.12692 3.6657-6.97778.36416-.7589.45945-1.1354.31232-1.23401-.0902-.0605-.21097.0808-1.22019 1.42792-1.11782 1.4921-1.45063 1.88401-2.11282 2.48807-2.50203 2.28233-4.34765 4.3169-7.34294 8.09469-2.16538 2.73108-2.43296 3.01443-2.60694 3.43491-.43614.3847-.21105.16313-.62028.57001-.10586.17482-.10588.13866-.10586.17482 5e-5.14686 2.88997 2.74829 3.05624 2.75274.0347 95e-5.0776-.0767.0952-.17253zm-3.80531-3.66983c.18109-.57269 1.13656-2.18743 2.28348-3.85904.96349-1.40427 2.06451-3.16693 2.06451-3.30515.0-.0605-.0308-.12109-.0684-.13469-.15904-.0575-.68274.10941-1.41764.45179-1.89368.88225-2.88141 1.25642-4.65451 1.76322-1.72957.49435-1.78327.50549-2.08094.43163-.13692-.034-.25973-.0429-.27291-.0197-.10306.18082 3.78056 4.96273 3.9925 4.91599.0454-.01.11467-.11983.15395-.24403zm57.01424-1.52025.33576-.40824-.2563-.58292c-.14097-.3206-.25631-.63382-.25631-.69605.0-.0622-.20688-.42345-.45974-.80274-1.01923-1.52889-.97976-1.44288-2.18163-4.7539-1.47777-4.07112-1.67432-4.51751-2.94983-6.6992-.37152-.63547-1.04825-1.82583-1.50385-2.64525-1.22588-2.20484-1.54253-2.70237-2.57372-4.0439-.73269-.66188-1.02393-1.29985-1.58738-2.10567-.36328-.48921-.74884-1.04598-.85679-1.23727-1.11766-1.98056-2.08585-3.14457-2.98561-3.58946-.31744-.15695-1.38036-.44889-1.49005-.40925-.11519.0416-.0755.17467.23817.79742.41738.82878.49475.95704 1.43493 2.37871 1.55331 2.34881 1.43955 2.12846 3.23374 6.26348.6603 1.52178 1.70017 3.82042 2.31082 5.10809.61064 1.28766 1.30759 2.84405 1.54876 3.45866.62997 1.60541 1.6793 3.36065 3.53087 5.90616 1.81785 2.49913 2.91065 3.95182 2.99454 3.98069.0562.0193.12851.098.16079.17481.0323.0768.15221.29821.26651.49197l.20782.3523.25137-.2651c.13825-.14581.40246-.44881.58713-.67334zm3.97747-5.52767c.40858-.83524.42083-.70407.89218-1.55683.73293-1.32755.77169-1.41597.65713-1.49911-.61748-.44813-.99539-.75737-1.05756-.86542-.0416-.0723-.27756-.30411-.5243-.51506-.24675-.21094-.80193-.71222-1.23373-1.11395-2.59367-2.413-3.00255-2.89595-4.82694-5.70126-1.83153-2.8163-2.29427-3.35132-3.43329-3.96966-.22509-.12219-.78183-.49481-1.23719-.82804-.45537-.33323-.85793-.60587-.89457-.60587-.19237.0-.0646.21357 2.05603 3.43579 2.0319 3.08746 2.41417 3.7481 3.41062 5.89438.48028 1.03448.97468 2.06066 1.09868 2.2804.49584.87865 1.98444 3.06983 2.36317 3.47851.45523.49122 1.24361 1.08598 1.4417 1.08763.0737 57e-5.34559.15112.60427.33446.25869.18334.49039.33334.51491.33334.0245.0.10052-.0852.16889-.18931zm-54.8131-4.23856c.65076-.31295 1.56601-.91207 3.49746-2.28941.93803-.66894 1.27294-.94332 1.50591-1.23376.16478-.20544.47993-.50877.70035-.67408.41754-.31314.86987-.79679 2.08519-2.22956.39718-.46824 1.0012-1.16604 1.34226-1.55066.34105-.38463 1.32854-1.65709 2.1944-2.82769 2.18039-2.94777 2.76452-3.61391 4.73282-5.3973 1.3905-1.25987 2.59069-2.05525 4.28978-2.84292.36999-.17152.81161-.39673.98137-.50046 1.34484-.82178 2.58239-2.10215 3.58424-3.70826.23585-.37811.30467-.54751.35426-.87205.051-.33345.0479-.41252-.0177-.45938-.0436-.0311-.30635-.0465-.58394-.0342-.42791.019-.64977.0739-1.45804.36085-.52433.18617-1.25615.3966-1.62627.46761-2.23824.42945-3.38853 1.10306-4.6669 2.73294-.33077.42173-.98082 1.23197-1.44456 1.80055-.46373.56858-1.03221 1.27986-1.26329 1.58061-.23109.30076-.61942.79332-.86296 1.09459-.90405 1.11833-2.27508 3.03706-4.31198 6.03454-.20937.30811-.5416.70824-.73828.88918-.3689.33936-2.90662 2.18292-4.6204 3.35654-1.18767.81333-1.38711.99785-1.79815 1.66355-.9054 1.46637-2.6623 4.7221-2.61711 4.8498.0422.11915.0737.11018.74151-.21098zm-15.14392-3.11942c.14364-.17267.94426-.60346 1.56487-.84202.27758-.1067.86836-.28944 1.31284-.40608.92729-.24334.8826-.22124 2.44441-1.20869 1.38337-.87463 1.91914-1.17013 3.39274-1.87121 1.42676-.6788 2.25463-1.04388 2.63569-1.16231.16964-.0527.83837-.15062 1.48608-.21755.6477-.0669 1.65712-.17769 2.24314-.24614.58602-.0684 1.55757-.13889 2.15902-.15655 1.28282-.0377 1.51311-.0818 2.0749-.39749.833-.4681 2.68278-2.25374 3.65843-3.53159.87806-1.15.92019-1.2209 2.70263-4.54799.91514-1.70818 1.13634-2.18944 1.00624-2.18921-.0946 18e-5-1.68345.95525-2.51184 1.5099-1.17937.78965-1.66193 1.18123-2.06514 1.67579-.81071.9944-2.18581 2.59134-2.57823 2.99418-.79415.81523-1.48873 1.22931-2.84778 1.69775-.904.31158-3.13546 1.08786-4.85078 1.68748-1.72329.6024-3.74655 1.41266-4.4302 1.77416-.33927.1794-1.09633.66777-1.68235 1.08526-1.03004.73383-4.3995 2.77854-5.12251 3.10852-.19441.0887-.54086.19367-.76989.23318-.25783.0445-.41642.10051-.41642.1471.0.0414.053.21994.11787.39677.0648.17682.13991.38307.16685.45833.0614.17143.17132.17442.30943.008zm75.15652-5.29893c.2785-1.14855.57226-2.55822.5869-2.81636l.0132-.23279-.75566-.2263c-.4156-.12446-.8203-.26771-.89932-.31832-.079-.0506-.57174-.21921-1.09494-.37464-3.25817-.96794-5.04417-1.56963-6.0161-2.02677-.46471-.21857-1.50706-.9184-2.53379-1.70117-.83137-.63383-1.51715-1.30227-2.66701-2.59958-1.1815-1.33299-1.75341-1.88812-2.61121-2.53456-.68851-.51887-1.13077-.75399-2.48962-1.32357-.61949-.25967-1.27646-.55394-1.45993-.65394-.43434-.23671-1.0813-.48713-1.53895-.59568-.50877-.12067-2.84015-.23871-3.04414-.15412l-.15576.0646.10843.23048c.31808.6761.89408 1.3196 1.71721 1.91846.55822.40612 1.16535 1.00909 1.47268 1.46257.12099.17853.69077.72211 1.43873 1.37256 2.51493 2.1871 2.61531 2.25694 5.11325 3.55774 1.92051 1.00011 2.29992 1.22336 4.45279 2.62005 1.89223 1.2276 2.18115 1.40429 3.92549 2.40073.66313.37881 1.5716.91372 2.01883 1.1887.44722.27497.97536.5739 1.17363.66429.53873.24558 1.33979.51891 1.42134.48497.0395-.0164.37389.0504.74319.14859.36929.0982.7229.18082.78578.18373.0999.005.1372-.089.29498-.73965zm-74.76605-.2452c2.07274-.95026 2.72612-1.27541 5.49243-2.73328 1.11036-.58516 2.44783-1.26296 2.97216-1.50621 1.14196-.52979 1.48608-.71261 1.48608-.78951.0-.31858-2.07557-.31557-3.86941.006-.81223.14543-1.53136.34436-3.58902.99282-1.22672.38659-1.63778.54612-2.3553.91406-.86686.44451-1.40497.65097-2.28978.87849-.50611.13016-.62629.20225-.62629.37569.0.1402.35678 1.7656.51067 2.32649.1135.41365.11558.41641.2925.38831.098-.0156.98719-.39918 1.97596-.85249zm-2.22747-4.57946c.37514-.38761.68206-.74239.68206-.7884.0-.12705-.17397-.20353-.83027-.36497-.67418-.16584-.93938-.18498-.97982-.0707-.0275.0777.15351 1.60783.21506 1.81814.0633.21643.23946.10184.91297-.59408zm1.68444-5.64987c2.55006-.10728 2.84801-.13226 2.88682-.24193.0666-.1881-.25568-.36368-1.78626-.9733-.6477-.25798-1.7426-.70036-2.4331-.98307-.97501-.3992-1.30698-.50994-1.48608-.49574l-.23062.0183-.0151 1.33349c-.0117 1.02622.001 1.34479.0561 1.38251.10055.0692.54949.0632 3.0083-.0402zm69.99803-.96724c.80441-.17707 2.0677-.556 2.73807-.8213.82912-.32813 1.80079-.9712 1.88883-1.25007.0208-.0658.16757-.27103.32622-.45608.35674-.41612.94858-1.15365 1.23195-1.5352l.21284-.28659-.0911-.7776c-.18324-1.56458-.77127-4.85377-.89095-4.98355-.0292-.0317-1.01144.16659-1.5516.31314-.16964.046-.39676.0834-.50471.083-.36656-.001-1.89088.65851-2.70057 1.16897-.22648.14278-.7467.5021-1.15603.79848-1.63809 1.18605-2.59698 1.57156-4.50829 1.81254-1.03208.13012-3.04663.48865-3.60785.6421-.62414.17064-.98137.3373-.98137.45783.0.11422 1.18834 1.32146 2.0749 2.10791.56355.49991 1.6253 1.26924 2.4149 1.74981.95746.58273 1.93242.97615 2.7771 1.12064.52539.0899 1.5544.0262 2.32763-.14401zm-40.38663-3.65691c.19771-.0505.67718-.24437 1.06549-.43075.38831-.18638 1.23831-.55396 1.88888-.81684.65058-.26288 1.52667-.64312 1.94687-.84498.93265-.44802 1.95377-.83157 3.17889-1.19403.87327-.25836 1.38815-.444 1.95723-.70564l.24664-.1134-.13124-.1515c-.21034-.24278-.61607-.4958-.9789-.61046-.65431-.20677-1.87693-.098-4.19556.3732-2.29869.46716-2.98685.64217-4.04796 1.02945-1.17706.42959-1.74999.57164-3.08432.76471-1.3319.19272-1.45069.18299-3.30038-.2705-1.07544-.26366-2.10033-.46942-3.05627-.61358-3.27363-.49367-3.78364-.62828-7.94335-2.0966-2.46922-.8716-2.68028-.96672-4.45823-2.00919-.71525-.41937-1.88221-1.00312-3.70118-1.85143-1.85363-.86447-2.62239-1.17531-3.46225-1.39992-.93295-.2495-1.00171-.26186-1.02553-.1844-.0285.0926 1.24483 1.00539 2.58631 1.8541.66027.41774 1.7052 1.12819 2.32206 1.57878 2.1015 1.53506 2.57952 1.87001 3.93279 2.75567 2.67136 1.7483 4.78234 3.02181 5.5684 3.3593.91759.39397 2.27853.72341 4.4343 1.07342.66354.10773 1.10202.1343 2.38333.14442 1.19303.009 2.07534.0581 3.67314.20279 1.15662.10471 2.16603.19993 2.24314.21161.41774.0633 1.62936.0297 1.9577-.0542zm-19.75457-1.0929c.0472-.13342-.0399-.22172-.56051-.56789-.25629-.17044-.92717-.68022-1.49084-1.13284-1.83721-1.47526-2.22678-1.71381-3.7301-2.28407-.97588-.37018-1.35966-.44082-3.13305-.57667-1.1704-.0896-1.29145-.0898-1.41599-.001-.17833.12671-.17205.2404.0215.38987.38468.29703 3.66393 2.03524 4.58093 2.42818 2.21194.94784 3.29711 1.33012 4.69303 1.65325.87971.20364.9918.21354 1.035.0914zm-8.31165-.85492c.20282-.21992.18055-.23161-1.81854-.95423-1.68433-.60885-2.15965-.72571-2.2097-.54325-.0526.19158-.20131 1.19649-.20149 1.36115-18e-5.21442-.0417.21034 2.25297.22216 1.65011.008 1.89977-.002 1.97676-.0858zm61.12949-2.45473c3.56766-.20335 5.47373-1.16829 7.39484-3.7436.2495-.33445.76377-1.00202 1.14282-1.48347.37905-.48145.7364-.9877.7941-1.125.0577-.13729.379-.6024.71402-1.03358.33502-.43118.64129-.8308.68061-.88805.0601-.0875.0413-.18058-.11809-.58428-.26395-.66859-.47941-1.1187-.53549-1.1187-.0261.0-.3945.3147-.81866.69933-.42416.38462-.80411.69932-.84434.69932-.0402.0-.34645.27568-.68049.61263-1.17992 1.19017-2.05037 1.79013-2.85803 1.96991-1.10083.24503-2.82416.3141-3.27097.13108-.13765-.0564-.42786-.11483-.6449-.1299-.21705-.0151-.78578-.0585-1.26385-.0965-1.19478-.0951-1.80895-.0187-3.01232.37489-1.69967.55584-2.6406 1.00573-3.90005 1.86477-1.48263 1.01125-3.63059 2.81444-3.84157 3.22496l-.12708.24726.14869.12683c.22107.18857.47164.24591 1.3392.30648.98047.0685 8.26288.0277 9.70156-.0543zm9.72868-3.01667c.2925-.0534.56155-.12384.59788-.15654.0363-.0327.39899-.1684.80589-.30155.88558-.28979 1.12069-.39151 1.12069-.48486.0-.11655-.68131-2.33345-.73683-2.39758-.0329-.038-.0967-.001-.1761.10137-.68961.89126-1.35733 1.69129-1.41156 1.69129-.0611.0-1.09893 1.33011-1.14365 1.46576-.0388.11756.11955.24273.26658.21077.0799-.0174.3846-.0753.6771-.12866zm-33.18414-1.24682c.1153-.0347.23517-.11486.26637-.17809.14336-.29046.005-.93698-.31079-1.45483-.18177-.29786-.53351-.5648-1.73419-1.31613-.52366-.32769-1.59616-1.03359-2.38333-1.56867-.78717-.53508-1.85791-1.23049-2.37943-1.54536-1.13823-.68721-1.93034-1.25546-2.59554-1.862-.55596-.50693-1.318-1.33992-1.74433-1.90673-.51908-.69013-1.2801-1.99058-1.75268-2.99506-.2564-.54498-.65512-1.28127-.88606-1.63621-.90291-1.38775-1.03382-1.60669-1.26782-2.12053-.13313-.29235-.43705-1.05148-.67536-1.68695-.51014-1.36029-1.34194-3.24157-1.77456-4.0135-.16869-.30101-.5148-1.01249-.76912-1.58107-.25432-.56858-.53284-1.11587-.61892-1.21621-.0861-.10034-.26462-.40135-.39675-.66892-.33921-.68693-.29902-.65786-.65086-.47075-.16715.0889-.30391.18055-.30391.20367.0.0231.0909.29718.20193.609.11105.31183.20806.65093.21557.75355.007.10263.29899 1.04745.64773 2.09961.34873 1.05215.84295 2.54286 1.09825 3.31268 1.02579 3.09305 1.32266 3.6758 3.94927 7.75231.56617.87871.77512 1.25974.95442 1.74047.31779.85204.57815 1.30848 1.03617 1.81651.77975.86491 3.6005 3.17234 4.59024 3.75492.86293.50794 2.85933 1.83861 4.12995 2.75276 1.51128 1.08729 1.88863 1.29255 2.62242 1.42654.14609.0267.27824.0516.29366.0553.0154.004.12237-.0216.23767-.0563zm9.71955-.15356c.9345-.60972 1.44153-1.1988 2.89189-3.35991 1.45281-2.16477 2.02712-2.96122 3.07704-4.26727 1.42842-1.77688 1.98023-2.51589 2.55453-3.42117.30216-.47628.72939-1.12594.94942-1.44368.22001-.31773.66309-1.00185.9846-1.52026.41678-.67202.74277-1.11549 1.13576-1.54505.30314-.33137.60066-.70767.66113-.83621.0605-.12854.2295-.43228.3756-.67498.35273-.5859.41702-.98508.39409-2.4465l-.0172-1.09398-.77666-.65432c-.42717-.35988-.81136-.65433-.85376-.65433-.0424.0-.11556.0807-.16259.17929-.13423.28148-.41881.47573-1.01774.6947-1.22417.44756-1.25487.46548-1.78687 1.04269-.86948.94337-1.77403 2.36358-3.31079 5.19815-1.17854 2.17384-1.63218 2.94884-2.66376 4.5508-1.40158 2.17653-1.56896 2.63621-2.29549 6.30388-.45832 2.31376-.69628 4.00085-.58181 4.12498.0598.0649.0915.0522.44258-.17683zm-38.9835-.23288c-.0301-.085-3.19262-3.39893-3.77939-3.96028-.72533-.69392-3.71574-2.94754-3.91119-2.94754-.0554.0-.19347-.0684-.30695-.15203-.11347-.0836-.24528-.15202-.2929-.15202-.0869.0-.64838 1.12607-.64838 1.30031.0.0475.0846.14044.18798.20659.11542.0738.23877.23402.31952.4149.0723.16203.23383.40478.35887.53944.40841.4398 1.27846 1.21095 1.73895 1.54129.48561.34835 3.67863 2.09112 5.18958 2.83249.92185.45233 1.20344.5451 1.14391.37685zm17.51217-.60927c.4263-.15103 1.11577-.34484 1.53215-.43069.85614-.17653 1.23372-.30672 1.23372-.42541.0-.10925-.24667-.35388-.97264-.96459-.66259-.5574-.93569-.73781-2.70049-1.78401-2.95704-1.75297-4.29893-2.3781-6.95373-3.23942-2.94891-.95676-4.3446-1.48621-6.24527-2.36914-.85229-.39592-2.20575-.98683-3.00767-1.31314-.80192-.3263-2.04481-.86491-2.76198-1.19689-.85269-.39473-1.34192-.59055-1.41368-.56585-.14317.0493-.4693.4968-.42223.57939.02.0352.38637.25401.81409.48636.42771.23234 1.52975.85728 2.44897 1.38874.91922.53147 1.95598 1.121 2.3039 1.31008.34794.18908 1.15003.64445 1.78243 1.01193.63241.36749 1.73568 1.00013 2.45172 1.40586.71603.40574 1.61732.94333 2.00286 1.19466 1.00904.65776 3.07448 2.16171 4.1498 3.02167 1.52244 1.21751 2.17761 1.65976 2.83196 1.91157 1.03744.39925 1.75418.39407 2.92609-.0211zm16.9593-.83691c.0884-.17905.0298-1.57432-.0913-2.1733-.21504-1.06404-.59727-2.06041-1.34494-3.50588-1.20229-2.32435-1.58273-3.1954-2.01648-4.6169-.16329-.53513-.37468-1.18332-.46977-1.44042-.21023-.56845-.40017-1.57827-.62526-3.32411-.30176-2.34048-.33529-2.95004-.39531-7.18474-.031-2.1907-.0796-4.10623-.10798-4.25673-.0283-.15051-.074-.67341-.0881-1.16256l-.0366-.88891-.33923-.0385c-.18659-.0211-.83983.15976-1.38543-.0385h-1.04619l-.13186.89695c-.0725.49333-.16541.97905-.20642 1.07939-.11179.27353-.29766 2.03045-.36027 3.40539-.0305.66892-.093 1.88665-.13887 2.70607-.10445 1.86391-.10371 2.28857.005 3.08521.16076 1.174.43965 2.16552 1.41566 5.03299.30737.90304.74042 2.26931.96234 3.03615.45697 1.57906.71716 2.31853 1.12871 3.20786.61882 1.3372.97291 1.86298 2.57723 3.82689 1.04455 1.27867 1.63828 1.92832 2.14989 2.35238.21191.17566.4584.17619.54478.001zm20.85559-2.75281c1.47374-.24271 2.743-.90132 3.90045-2.02394.19565-.18976.41237-.46444.48159-.61038.0797-.16805.38888-.52583.84313-.97567.39449-.39068.71768-.72781.71821-.74918.001-.0588-.8603-1.59036-1.13547-2.01812-.13283-.20649-.26722-.37544-.29865-.37544-.0314.0-.36695.37627-.74561.83615-.37866.45988-.71979.83614-.75807.83614-.0383.0-.21854.18471-.40059.41047-1.06671 1.32278-1.83195 2.19413-2.23105 2.54039-.48708.4226-1.1114.80004-1.60767.97192-.41771.14467-1.644.75316-1.69374.84044-.0711.12476.0614.19085.58826.29345.6527.12711 1.6502.13724 2.33921.0238zm-21.02352-6.65245c.20673-.24577.25639-.69972.38688-3.53607.24337-5.2902.24346-5.30754.0335-6.74997-.099-.68015-.17462-1.82831-.2583-3.92228-.0334-.83615-.10099-1.78023-.15017-2.09797-.0654-.42239-.0811-.79331-.0585-1.37976l.031-.80206-.14938-.0339c-.58177-.13217-3.08457-.52071-3.35424-.52071-.0782.0-.0828.0912-.0399.80574.0266.44316.0409 1.01515.0318 1.27109-.009.25595.0853 1.95256.20973 3.77026.12441 1.81769.25382 3.71537.28757 4.21705.11481 1.70664.74421 5.4006 1.12907 6.62649.24383.7767 1.03087 2.29189 1.29828 2.49945.16575.12864.4235.0656.60263-.14732zm-34.05658-2.96924c.49887-.85842-.6697-2.62193-.82945-2.90804-.056-.10034-.15586-.38083-.22186-.62331-.066-.24248-.13824-.44087-.16052-.44087-.0223.0-.49497.50131-.73748.75757-.23558.24894-.69694.75758-.69694.75758l.10859.13937c.0597.0767.20339.25507.31925.39647.11587.1414.21067.29224.21067.33521.0.0878 1.29681 1.38322 1.64558 1.64384.26782.20013.2971.0541.36216-.0578zm42.10641-5.60893c.93127-.20841 1.58892-.6692 2.02507-1.41891.2731-.46943.62719-1.41621.6854-1.83267.0239-.17106.13601-.69343.2491-1.16083.11309-.4674.19813-.9326.18899-1.03378-.0157-.17366-.0747-.21548-1.05408-.7469-1.3858-.75196-3.02824-1.5094-3.02824-1.39653.0.12607-.40796 2.07707-.46695 2.23311-.14588.38589-.34079 2.04186-.34355 2.91891-.002.72925.0144.87867.14923 1.33783.0835.28429.16898.62326.18992.75326.0576.35777.18744.4631.56949.46215.17735-38e-5.55338-.0525.83562-.11564zm-27.92546-2.03151c-.12313-.97419-.90091-4.03316-1.10827-4.35877-.0532-.0836-.1873-.50574-.27736-.76014-.078-.22045-.20183-.63322-.22784-.66392-.0286-.0337-.13128-.0278-.2594.015-.38722.12929-.38519.11931-.15214.74755.11636.31366.23015.69469.25287.84674.0553.36978 1.17665 3.43614 1.46065 3.99403.2592.50919.36054.56759.31149.17952zm5.64404-3.8077c.10973-.1317.22552-.34378.25733-.47128.10166-.40757.33467-1.86609.33334-2.08654-7e-4-.11706.0656-.53397.14736-.92646.0818-.39249.13104-.74452.10951-.78229-.0265-.0464-.1481-.0553-.37527-.0274-.54338.0667-1.73898.32923-1.79988.39527-.0374.0406.0125.30144.14998.78337.11334.39739.20608.79989.20608.89443.0.21781.66021 2.4604.72434 2.4604.0262.0.13748-.10776.24721-.23946z" /></g></g></g></svg>